<svg enable-background="new 0 0 66 66" version="1.1" viewBox="0 0 215 262" xml:space="preserve"
    xmlns="http://www.w3.org/2000/svg">
    <path d="m107.51 0c-59.266 0-107.51 48.248-107.51 107.55 0 42.842 25.107 81.178 64.14 98.38l36.739 52.712c1.5154 2.1708 4.0138 3.4814 6.6351 3.4814h0.0409c2.6213 0 5.1197-1.3106 6.6351-3.4814l36.698-52.712c39.033-17.202 64.14-55.539 64.14-98.38 5e-5 -59.307-48.207-107.55-107.51-107.55zm0 166.12c-32.357 0-58.569-26.254-58.569-58.569 0-32.357 26.213-58.569 58.569-58.569 32.357 0 58.569 26.213 58.569 58.569 0 32.316-26.213 58.569-58.569 58.569z" stroke-width="4.0958"/>
    <circle cx="108.13" cy="106.5" r="75.564" fill="#f60" stroke="#f60" stroke-linejoin="round" stroke-width="42.346"/>
    <path d="m83.838 34.06c0-4.1606-3.3472-7.5078-7.5078-7.5078s-7.5078 3.3472-7.5078 7.5078v12.513c-11.043 0-20.021 8.9781-20.021 20.021h-12.513c-4.1606 0-7.5078 3.3472-7.5078 7.5078 0 4.1606 3.3472 7.5078 7.5078 7.5078h12.513v17.518h-12.513c-4.1606 0-7.5078 3.3472-7.5078 7.5078 0 4.1606 3.3472 7.5078 7.5078 7.5078h12.513v17.518h-12.513c-4.1606 0-7.5078 3.3472-7.5078 7.5078s3.3472 7.5078 7.5078 7.5078h12.513c0 11.043 8.9781 20.021 20.021 20.021v12.513c0 4.1606 3.3472 7.5078 7.5078 7.5078s7.5078-3.3472 7.5078-7.5078v-12.513h17.518v12.513c0 4.1606 3.3472 7.5078 7.5078 7.5078s7.5078-3.3472 7.5078-7.5078v-12.513h17.518v12.513c0 4.1606 3.3472 7.5078 7.5078 7.5078 4.1606 0 7.5078-3.3472 7.5078-7.5078v-12.513c11.043 0 20.021-8.9781 20.021-20.021h12.513c4.1606 0 7.5078-3.3472 7.5078-7.5078s-3.3472-7.5078-7.5078-7.5078h-12.513v-17.518h12.513c4.1606 0 7.5078-3.3472 7.5078-7.5078 0-4.1606-3.3472-7.5078-7.5078-7.5078h-12.513v-17.518h12.513c4.1606 0 7.5078-3.3472 7.5078-7.5078 0-4.1606-3.3472-7.5078-7.5078-7.5078h-12.513c0-11.043-8.9781-20.021-20.021-20.021v-12.513c0-4.1606-3.3472-7.5078-7.5078-7.5078-4.1606 0-7.5078 3.3472-7.5078 7.5078v12.513h-17.518v-12.513c0-4.1606-3.3472-7.5078-7.5078-7.5078s-7.5078 3.3472-7.5078 7.5078v12.513h-17.518zm-5.0052 32.534h60.063c5.537 0 10.01 4.4734 10.01 10.01v60.063c0 5.537-4.4734 10.01-10.01 10.01h-60.063c-5.537 0-10.01-4.4734-10.01-10.01v-60.063c0-5.537 4.4734-10.01 10.01-10.01zm60.063 10.01h-60.063v60.063h60.063z" stroke-width=".31283"/>
</svg>