<svg viewBox="0 0 384 512" version="1.1" id="svg343" xml:space="preserve"
  xmlns="http://www.w3.org/2000/svg"
  xmlns:svg="http://www.w3.org/2000/svg">
  <defs id="defs347" />
  <path d="M384 192c0 87.4-117 243-168.3 307.2c-12.3 15.3-35.1 15.3-47.4 0C117 435 0 279.4 0 192C0 86 86 0 192 0S384 86 384 192z" id="path341" style="fill:#808080" />
  <path d="m 106.82002,87.051648 c 0,-16.171563 13.14799,-29.319546 29.31955,-29.319546 h 117.2782 c 16.17156,0 29.31955,13.147983 29.31955,29.319546 V 262.96894 h 29.31955 c 8.10868,0 14.65977,6.55108 14.65977,14.65977 0,8.10869 -6.55109,14.65978 -14.65977,14.65978 H 260.74766 128.80969 77.500479 c -8.10869,0 -14.65978,-6.55109 -14.65978,-14.65978 0,-8.10869 6.55109,-14.65977 14.65978,-14.65977 H 106.82002 Z M 238.75799,189.67007 a 14.659775,14.659775 0 1 0 0,-29.31955 14.659775,14.659775 0 1 0 0,29.31955 z" id="path431" style="stroke-width:0.458118" />
</svg>
