<svg viewBox="0 0 384 512" version="1.1" id="svg343" xml:space="preserve"
  xmlns="http://www.w3.org/2000/svg"
  xmlns:svg="http://www.w3.org/2000/svg">
  <defs id="defs347" />
  <path d="M384 192c0 87.4-117 243-168.3 307.2c-12.3 15.3-35.1 15.3-47.4 0C117 435 0 279.4 0 192C0 86 86 0 192 0S384 86 384 192z" id="path341" style="fill:#808080" />
  <path d="m 188.14481,110.30591 c 2.99916,-2.66124 4.18193,-6.84318 2.61898,-10.560462 -0.97155,-2.238818 -2.0276,-4.435392 -3.21037,-6.547479 l -1.3095,-2.281059 c -1.26725,-2.112091 -2.66123,-4.181941 -4.1397,-6.167307 -2.40778,-3.210379 -6.63197,-4.266425 -10.43373,-2.99917 l -11.9122,3.92849 C 155.23841,81.961642 150.04267,78.92023 144.46675,76.85038 L 141.89,64.600249 c -0.8026,-3.928489 -3.844,-7.054385 -7.81474,-7.519045 -2.78796,-0.380177 -5.61816,-0.549144 -8.49061,-0.549144 h -0.29569 c -2.87244,0 -5.70264,0.168967 -8.49061,0.506902 -3.97073,0.46466 -7.01214,3.632798 -7.81474,7.519045 l -2.57675,12.292373 c -5.61816,2.112092 -10.771663,5.111262 -15.291538,8.828543 L 79.160884,81.792675 c -3.801765,-1.267255 -8.025948,-0.211209 -10.433732,2.99917 -1.478464,1.985366 -2.872445,4.055216 -4.181942,6.167307 l -1.267255,2.238817 c -1.182771,2.112087 -2.238817,4.308661 -3.210379,6.589721 -1.562947,3.67504 -0.380176,7.85698 2.618994,10.56046 l 9.377686,8.36388 c -0.46466,2.8302 -0.718111,5.78713 -0.718111,8.78631 0,2.99917 0.253451,5.95609 0.718111,8.82853 l -9.377686,8.36389 c -2.99917,2.66124 -4.181941,6.84317 -2.618994,10.56046 0.971562,2.23881 2.027608,4.43539 3.210379,6.58972 l 1.267255,2.19658 c 1.267255,2.15434 2.661236,4.18193 4.181942,6.1673 2.407784,3.21038 6.631967,4.26643 10.433732,2.99917 L 91.07308,169.2755 c 4.519876,3.71728 9.71562,6.7587 15.29154,8.82855 l 2.57675,12.29237 c 0.80259,3.92849 3.84401,7.05439 7.81474,7.51905 2.83021,0.33793 5.70265,0.5069 8.61733,0.5069 2.91469,0 5.78713,-0.16897 8.61734,-0.5069 3.97073,-0.46466 7.01214,-3.6328 7.81473,-7.51905 l 2.57676,-12.29237 c 5.61816,-2.11209 10.77166,-5.11127 15.29154,-8.82855 l 11.9122,3.92849 c 3.80176,1.26726 8.02594,0.21121 10.43373,-2.99917 1.47846,-1.98537 2.87244,-4.01296 4.1397,-6.1673 l 1.3095,-2.28106 c 1.18277,-2.11209 2.23882,-4.30867 3.21037,-6.54749 1.56295,-3.67504 0.38018,-7.85697 -2.61899,-10.56045 l -9.37769,-8.36389 c 0.46466,-2.87244 0.71811,-5.82936 0.71811,-8.82854 0,-2.99917 -0.25345,-5.9561 -0.71811,-8.82854 l 9.37769,-8.36388 z m -83.0052,17.19243 a 20.276078,20.276078 0 1 1 40.55215,0 20.276078,20.276078 0 1 1 -40.55215,0 z m 165.88367,137.07474 c 2.66123,2.99917 6.84318,4.18194 10.56045,2.61899 2.23882,-0.97156 4.4354,-2.02761 6.54749,-3.21038 l 2.28106,-1.3095 c 2.11209,-1.26725 4.18194,-2.66123 6.16731,-4.1397 3.21037,-2.40778 4.26642,-6.63196 2.99916,-10.43373 l -3.92848,-11.91219 c 3.71727,-4.51988 6.75868,-9.71563 8.82854,-15.29155 l 12.29237,-2.57675 c 3.92849,-0.80259 7.05439,-3.844 7.51905,-7.81474 0.33793,-2.8302 0.5069,-5.70265 0.5069,-8.61733 0,-2.91469 -0.16897,-5.78713 -0.5069,-8.61734 -0.46466,-3.97073 -3.6328,-7.01214 -7.51905,-7.81474 l -12.29237,-2.61898 c -2.1121,-5.61817 -5.11127,-10.77168 -8.82854,-15.29155 l 3.92848,-11.9122 c 1.26726,-3.80176 0.21121,-8.02594 -2.99916,-10.43373 -1.98537,-1.47846 -4.05522,-2.87244 -6.16731,-4.18194 l -2.23882,-1.26726 c -2.11209,-1.18277 -4.30867,-2.23881 -6.58973,-3.21038 -3.67503,-1.56295 -7.85697,-0.38017 -10.56045,2.619 l -8.36388,9.37769 c -2.87245,-0.46466 -5.82938,-0.71811 -8.82855,-0.71811 -2.99917,0 -5.9561,0.25345 -8.82854,0.71811 l -8.36388,-9.37769 c -2.66124,-2.99917 -6.84318,-4.18195 -10.56047,-2.619 -2.23881,0.97157 -4.43538,2.02761 -6.58972,3.21038 l -2.19657,1.26726 c -2.15434,1.26726 -4.18195,2.66124 -6.16731,4.18194 -3.21038,2.40779 -4.26642,6.63197 -2.99918,10.43373 l 3.9285,11.9122 c -3.71729,4.51987 -6.75869,9.71562 -8.82854,15.29155 l -12.29238,2.5345 c -3.92848,0.80259 -7.05438,3.84401 -7.51904,7.81474 -0.33794,2.83021 -0.5069,5.70265 -0.5069,8.61734 0,2.91468 0.16896,5.78712 0.5069,8.61733 0.46466,3.97073 3.6328,7.01215 7.51904,7.81474 l 12.29238,2.57674 c 2.11209,5.61817 5.11125,10.77168 8.82854,15.29156 l -3.9285,11.91219 c -1.26724,3.80177 -0.2112,8.02594 2.99918,10.43373 1.98536,1.47846 4.01297,2.87244 6.16731,4.1397 l 2.28106,1.3095 c 2.11209,1.18277 4.30867,2.23881 6.54747,3.21038 3.67505,1.56295 7.85699,0.38017 10.56047,-2.619 l 8.36389,-9.37769 c 2.87243,0.46466 5.82936,0.71811 8.82853,0.71811 2.99917,0 5.9561,-0.25345 8.82855,-0.71811 l 8.36388,9.37769 z m -17.19243,-83.0052 a 20.276078,20.276078 0 1 1 0,40.55215 20.276078,20.276078 0 1 1 0,-40.55215 z" id="path656" style="stroke-width:0.422419" />
  <g id="layer2">
    <path style="fill:#d2d2d2;fill-opacity:1;stroke:#191919;stroke-width:5;stroke-linejoin:round;stroke-dasharray:none;stroke-opacity:1;paint-order:normal" id="rect739" width="321.76758" height="225.58678" x="216.95781" y="-76.891624" d="m 246.95781,-76.891624 261.76758,0 a 30,30 45 0 1 30,30 V 118.69515 a 30,30 135 0 1 -30,30 H 246.95781 a 30,30 45 0 1 -30,-30 V -46.891624 a 30,30 135 0 1 30,-30 z" />
  </g>
</svg>
