<svg viewBox="0 0 384 512" version="1.1" id="svg343" xml:space="preserve"
  xmlns="http://www.w3.org/2000/svg"
  xmlns:svg="http://www.w3.org/2000/svg">
  <defs id="defs347" />
  <path d="M384 192c0 87.4-117 243-168.3 307.2c-12.3 15.3-35.1 15.3-47.4 0C117 435 0 279.4 0 192C0 86 86 0 192 0S384 86 384 192z" id="path341" style="fill:#808080" />
  <path d="m 256.7922,271.42289 c -17.50924,12.53057 -38.99023,19.85872 -62.20537,19.85872 -23.21513,0 -44.69612,-7.32815 -62.20537,-19.85872 l 32.44525,-32.44525 c 8.83853,4.81085 19.01963,7.55191 29.81606,7.55191 10.79644,0 20.92159,-2.74106 29.81606,-7.55191 l 32.44525,32.44525 z m 50.73766,0.44752 c 18.90774,-24.278 30.20764,-54.82128 30.20764,-87.99375 0,-33.17247 -11.2999,-63.71576 -30.20764,-87.993756 5.0346,-6.99251 4.41926,-16.837965 -1.90197,-23.103254 -6.32123,-6.265289 -16.0548,-6.93657 -23.04731,-1.901963 -24.278,-18.907747 -54.82128,-30.207644 -87.99375,-30.207644 -33.17246,0 -63.71575,11.299897 -87.99374,30.207644 C 99.600578,65.84308 89.755123,66.458421 83.489834,72.77965 77.224545,79.100879 76.553264,88.890394 81.587871,95.882904 62.680124,120.1609 51.380227,150.70419 51.380227,183.87666 c 0,33.17247 11.299897,63.71575 30.207644,87.99375 -5.034607,6.99251 -4.419266,16.83796 1.901963,23.10325 6.321229,6.26529 16.110744,6.93657 23.103256,1.90196 24.27799,18.90775 54.82128,30.20765 87.99374,30.20765 33.17247,0 63.71575,-11.2999 87.99375,-30.20765 6.99251,5.03461 16.83796,4.41927 23.10325,-1.90196 6.26529,-6.32123 6.93657,-16.11074 1.90197,-23.10325 z m -25.45274,-25.78838 -32.44525,-32.44525 c 4.81085,-8.83853 7.55191,-19.01963 7.55191,-29.81606 0,-10.79644 -2.74106,-20.9216 -7.55191,-29.81607 l 32.44525,-32.44525 c 12.58652,17.62113 19.91467,39.10212 19.91467,62.31726 0,23.21513 -7.32815,44.69612 -19.85873,62.20537 z M 256.7922,96.330424 224.34695,128.77567 c -8.83853,-4.81084 -19.01962,-7.55191 -29.81606,-7.55191 -10.79643,0 -20.92159,2.74107 -29.81606,7.55191 L 132.26958,96.330424 c 17.62113,-12.530578 39.10212,-19.858729 62.31725,-19.858729 23.21514,0 44.69613,7.328151 62.20537,19.858729 z M 139.48585,213.69272 107.04061,246.13797 C 94.51003,228.57278 87.181879,207.09179 87.181879,183.87666 c 0,-23.21514 7.328151,-44.69613 19.858731,-62.20538 l 32.44524,32.44525 c -4.81084,8.83853 -7.55191,19.01963 -7.55191,29.81607 0,10.79643 2.74107,20.92159 7.55191,29.81606 z m 28.24974,-29.81606 a 26.851239,26.851239 0 1 1 53.70248,0 26.851239,26.851239 0 1 1 -53.70248,0 z" id="path518" style="stroke-width:0.559401" />
</svg>
