<svg viewBox="0 0 384 512" version="1.1" id="svg343" xml:space="preserve"
  xmlns="http://www.w3.org/2000/svg"
  xmlns:svg="http://www.w3.org/2000/svg">
  <defs id="defs347" />
  <path d="m 199.35793,345.56908 c 0,44.88288 -60.08349,124.78878 -86.42778,157.75767 -6.31647,7.85707 -18.025045,7.85707 -24.34152,0 C 62.244335,470.35786 2.160853,390.45196 2.160853,345.56908 c 0,-54.43461 44.163927,-98.59854 98.598537,-98.59854 54.43461,0 98.59854,44.16393 98.59854,98.59854 z" id="path341" style="fill:#808080;stroke-width:0.513534" />
  <path d="m 98.779618,303.61638 c 1.540172,-1.36664 2.147562,-3.51421 1.344942,-5.42316 -0.49893,-1.1497 -1.041246,-2.27772 -1.648637,-3.36235 l -0.672473,-1.1714 c -0.650779,-1.08463 -1.366633,-2.14757 -2.125882,-3.16713 -1.236476,-1.64863 -3.40574,-2.19095 -5.358076,-1.54017 l -6.117319,2.01742 c -2.321114,-1.90895 -4.989298,-3.47083 -7.852729,-4.53376 l -1.323245,-6.29087 c -0.412165,-2.01741 -1.974024,-3.62266 -4.013137,-3.86128 -1.431713,-0.19524 -2.885115,-0.282 -4.360218,-0.282 H 66.501 c -1.475097,0 -2.928499,0.0868 -4.360214,0.26031 -2.039106,0.23861 -3.600978,1.86556 -4.013137,3.86129 l -1.323252,6.31255 c -2.885117,1.08463 -5.531614,2.62481 -7.852722,4.53376 l -6.139012,-1.99573 c -1.952337,-0.65078 -4.1216,-0.10846 -5.358076,1.54018 -0.759242,1.01956 -1.475103,2.08249 -2.147569,3.16712 l -0.650779,1.14971 c -0.607398,1.08463 -1.149714,2.21265 -1.648642,3.38405 -0.80263,1.88725 -0.195232,4.03482 1.344939,5.42315 l 4.815767,4.29514 c -0.23862,1.45341 -0.368777,2.97189 -0.368777,4.51207 0,1.54018 0.130157,3.05865 0.368777,4.53375 l -4.815767,4.29515 c -1.540171,1.36664 -2.147569,3.5142 -1.344939,5.42315 0.498928,1.14971 1.041244,2.27772 1.648642,3.38405 l 0.650779,1.12802 c 0.650779,1.10632 1.366633,2.14756 2.147569,3.16712 1.236476,1.64864 3.405739,2.19095 5.358076,1.54017 l 6.117318,-2.01741 c 2.321108,1.90895 4.989299,3.47082 7.852729,4.53376 l 1.323245,6.31255 c 0.412159,2.01741 1.974031,3.62267 4.013137,3.86129 1.453409,0.17354 2.928506,0.26031 4.425289,0.26031 1.496797,0 2.971893,-0.0868 4.4253,-0.26031 2.039106,-0.23862 3.600972,-1.86557 4.01313,-3.86129 l 1.323252,-6.31255 c 2.885118,-1.08463 5.531615,-2.62481 7.852729,-4.53376 l 6.117318,2.01741 c 1.952337,0.65078 4.121594,0.10847 5.358077,-1.54017 0.759242,-1.01956 1.475096,-2.0608 2.125875,-3.16712 l 0.672473,-1.1714 c 0.607398,-1.08463 1.149714,-2.21265 1.648635,-3.36237 0.80263,-1.88725 0.19524,-4.03481 -1.34494,-5.42315 l -4.81576,-4.29514 c 0.238613,-1.47509 0.368771,-2.99358 0.368771,-4.53376 0,-1.54017 -0.130158,-3.05866 -0.368771,-4.53376 l 4.81576,-4.29513 z m -42.625993,8.8289 a 10.412457,10.412457 0 1 1 20.824904,0 10.412457,10.412457 0 1 1 -20.824904,0 z m 85.186915,70.39256 c 1.36663,1.54017 3.5142,2.14756 5.42315,1.34494 1.14971,-0.49893 2.27773,-1.04126 3.36236,-1.64865 l 1.1714,-0.67247 c 1.08463,-0.65078 2.14757,-1.36663 3.16712,-2.12587 1.64864,-1.23648 2.19095,-3.40574 1.54018,-5.35808 l -2.01742,-6.11732 c 1.90895,-2.32111 3.47082,-4.9893 4.53376,-7.85273 l 6.31255,-1.32325 c 2.01742,-0.41216 3.62268,-1.97402 3.86129,-4.01314 0.17354,-1.4534 0.26031,-2.9285 0.26031,-4.42529 0,-1.49679 -0.0868,-2.97188 -0.26031,-4.42529 -0.23861,-2.03911 -1.86556,-3.60098 -3.86129,-4.01314 l -6.31255,-1.34494 c -1.08464,-2.88511 -2.62481,-5.53162 -4.53376,-7.85273 l 2.01742,-6.11731 c 0.65077,-1.95234 0.10846,-4.1216 -1.54018,-5.35808 -1.01955,-0.75924 -2.08249,-1.4751 -3.16712,-2.14757 l -1.14971,-0.65079 c -1.08463,-0.60739 -2.21265,-1.1497 -3.38405,-1.64864 -1.88726,-0.80263 -4.03482,-0.19523 -5.42315,1.34496 l -4.29514,4.81576 c -1.4751,-0.23862 -2.99359,-0.36877 -4.53376,-0.36877 -1.54018,0 -3.05866,0.13015 -4.53376,0.36877 l -4.29514,-4.81576 c -1.36663,-1.54019 -3.5142,-2.14759 -5.42315,-1.34496 -1.14971,0.49894 -2.27772,1.04125 -3.38405,1.64864 l -1.12801,0.65079 c -1.10633,0.65078 -2.14758,1.36663 -3.16713,2.14757 -1.64864,1.23648 -2.19095,3.40574 -1.54018,5.35808 l 2.01742,6.11731 c -1.90895,2.32111 -3.47082,4.9893 -4.53376,7.85273 l -6.31255,1.30156 c -2.017409,0.41215 -3.622669,1.97402 -3.861289,4.01313 -0.173539,1.45341 -0.260308,2.92851 -0.260308,4.4253 0,1.49679 0.08677,2.97188 0.260308,4.42529 0.23862,2.03911 1.865567,3.60098 3.861289,4.01314 l 6.31255,1.32324 c 1.08464,2.88512 2.62481,5.53163 4.53376,7.85274 l -2.01742,6.11731 c -0.65077,1.95235 -0.10846,4.1216 1.54018,5.35808 1.01955,0.75924 2.0608,1.47509 3.16713,2.12588 l 1.1714,0.67247 c 1.08463,0.60739 2.21264,1.1497 3.36234,1.64864 1.88727,0.80263 4.03484,0.19523 5.42317,-1.34495 l 4.29514,-4.81576 c 1.47509,0.23862 2.99358,0.36878 4.53375,0.36878 1.54018,0 3.05866,-0.13016 4.53376,-0.36878 l 4.29514,4.81576 z m -8.8289,-42.62601 a 10.41246,10.41246 0 1 1 0,20.82492 10.41246,10.41246 0 1 1 0,-20.82492 z" id="path656" style="stroke-width:0.216926" />
  <g id="layer2">
    <path style="fill:#d2d2d2;fill-opacity:1;stroke:#191919;stroke-width:5;stroke-linejoin:round;stroke-dasharray:none;stroke-opacity:1;paint-order:normal" id="rect739" width="321.76758" height="225.58678" x="56.398151" y="50.771282" d="M 86.398151,50.771282 H 348.16573 a 30,30 45 0 1 30,30 V 246.35806 a 30,30 135 0 1 -30,30 H 86.398151 a 30,30 45 0 1 -30,-30 V 80.771282 a 30,30 135 0 1 30,-30 z" />
  </g>
</svg>
