<svg viewBox="0 0 384 512" version="1.1" id="svg343" xml:space="preserve"
  xmlns="http://www.w3.org/2000/svg"
  xmlns:svg="http://www.w3.org/2000/svg">
  <defs id="defs347" />
  <path d="M384 192c0 87.4-117 243-168.3 307.2c-12.3 15.3-35.1 15.3-47.4 0C117 435 0 279.4 0 192C0 86 86 0 192 0S384 86 384 192z" id="path341" style="fill:#808080" />
  <path d="m 152.09993,72.722256 c 0,-6.842935 -5.50521,-12.348162 -12.34816,-12.348162 -6.84294,0 -12.34817,5.505227 -12.34817,12.348162 v 20.580282 c -18.16208,0 -32.928436,14.766362 -32.928436,32.928442 H 73.894886 c -6.842942,0 -12.348167,5.50523 -12.348167,12.34818 0,6.84293 5.505225,12.34816 12.348167,12.34816 H 94.475164 V 179.7397 H 73.894886 c -6.842942,0 -12.348167,5.50523 -12.348167,12.34818 0,6.84293 5.505225,12.34816 12.348167,12.34816 h 20.580278 v 28.81239 H 73.894886 c -6.842942,0 -12.348167,5.50522 -12.348167,12.34817 0,6.84294 5.505225,12.34816 12.348167,12.34816 h 20.580278 c 0,18.1621 14.766356,32.92845 32.928436,32.92845 v 20.58028 c 0,6.84294 5.50523,12.34816 12.34817,12.34816 6.84295,0 12.34816,-5.50522 12.34816,-12.34816 v -20.58028 h 28.81239 v 20.58028 c 0,6.84294 5.50523,12.34816 12.34817,12.34816 6.84295,0 12.34817,-5.50522 12.34817,-12.34816 v -20.58028 h 28.81239 v 20.58028 c 0,6.84294 5.50522,12.34816 12.34816,12.34816 6.84295,0 12.34818,-5.50522 12.34818,-12.34816 v -20.58028 c 18.16208,0 32.92843,-14.76635 32.92843,-32.92845 h 20.58029 c 6.84293,0 12.34816,-5.50522 12.34816,-12.34816 0,-6.84295 -5.50523,-12.34817 -12.34816,-12.34817 h -20.58029 v -28.81239 h 20.58029 c 6.84293,0 12.34816,-5.50523 12.34816,-12.34816 0,-6.84295 -5.50523,-12.34818 -12.34816,-12.34818 h -20.58029 v -28.81238 h 20.58029 c 6.84293,0 12.34816,-5.50523 12.34816,-12.34816 0,-6.84295 -5.50523,-12.34818 -12.34816,-12.34818 h -20.58029 c 0,-18.16208 -14.76635,-32.928442 -32.92843,-32.928442 V 72.722256 c 0,-6.842935 -5.50523,-12.348162 -12.34818,-12.348162 -6.84294,0 -12.34816,5.505227 -12.34816,12.348162 V 93.302538 H 205.60866 V 72.722256 c 0,-6.842935 -5.50522,-12.348162 -12.34817,-12.348162 -6.84294,0 -12.34817,5.505227 -12.34817,12.348162 v 20.580282 h -28.81239 z m -8.23211,53.508724 h 98.78534 c 9.10678,0 16.46423,7.35745 16.46423,16.46423 v 98.78533 c 0,9.10677 -7.35745,16.46422 -16.46423,16.46422 h -98.78534 c -9.10677,0 -16.46422,-7.35745 -16.46422,-16.46422 v -98.78533 c 0,-9.10678 7.35745,-16.46423 16.46422,-16.46423 z m 98.78534,16.46423 h -98.78534 v 98.78533 h 98.78534 z" id="path365" style="stroke-width:0.514507" />
</svg>
