<svg viewBox="0 0 384 512" version="1.1" id="svg343" xml:space="preserve"
  xmlns="http://www.w3.org/2000/svg"
  xmlns:svg="http://www.w3.org/2000/svg">
  <defs id="defs347" />
  <path d="M384 192c0 87.4-117 243-168.3 307.2c-12.3 15.3-35.1 15.3-47.4 0C117 435 0 279.4 0 192C0 86 86 0 192 0S384 86 384 192z" id="path341" style="fill:#808080" />
  <path d="M 204.4148,53.312455 V 173.87917 h 27.82309 V 59.514685 c 13.85358,7.999138 23.18591,23.012014 23.18591,40.169589 v 74.194896 h 27.82309 V 99.684274 c 0,-40.981096 -33.21381,-74.194909 -74.19491,-74.194909 h -37.09745 c -40.9811,0 -74.194913,33.213813 -74.194913,74.194909 V 173.87917 H 125.58271 V 99.684274 c 0,-17.157575 9.33233,-32.170451 23.18591,-40.169589 V 173.87917 h 27.82309 V 53.312455 Z M 88.485256,192.4279 c -7.013738,0 -13.447827,3.9416 -16.577925,10.25976 l -9.274363,18.54873 c -2.898239,5.73851 -2.55045,12.57835 0.811507,18.02704 3.361956,5.44869 9.332328,8.81065 15.766417,8.81065 v 55.64618 c 0,10.25976 8.288962,18.54872 18.548725,18.54872 10.259773,0 18.548733,-8.28896 18.548733,-18.54872 v -55.64618 h 148.38981 v 55.64618 c 0,10.25976 8.28896,18.54872 18.54873,18.54872 10.25976,0 18.54873,-8.28896 18.54873,-18.54872 v -55.64618 c 6.43408,0 12.40446,-3.304 15.76641,-8.81065 3.36196,-5.50665 3.70975,-12.28853 0.81151,-18.02704 l -9.27436,-18.54873 c -3.1301,-6.31816 -9.56419,-10.25976 -16.57793,-10.25976 z" id="path564" style="stroke-width:0.579648" />
</svg>
