<svg viewBox="0 0 384 512" version="1.1" id="svg343" xml:space="preserve"
  xmlns="http://www.w3.org/2000/svg"
  xmlns:svg="http://www.w3.org/2000/svg">
  <defs id="defs347" />
  <path d="M384 192c0 87.4-117 243-168.3 307.2c-12.3 15.3-35.1 15.3-47.4 0C117 435 0 279.4 0 192C0 86 86 0 192 0S384 86 384 192z" id="path341" style="fill:#808080" />
  <path d="m 85.9916,61.174061 c -4.985312,-3.375472 -11.632395,-2.752308 -15.890683,1.45405 -4.258288,4.206357 -4.881452,10.905371 -1.45405,15.838753 l 58.161983,84.802246 -51.72262,16.82543 c -5.141105,1.66177 -8.620437,6.43936 -8.620437,11.84012 0,5.40075 3.479332,10.17834 8.620437,11.84012 l 53.54017,17.34473 -27.47114,52.24192 c -2.544588,4.82951 -1.661772,10.74957 2.233,14.59242 3.89478,3.84284 9.76291,4.77759 14.59243,2.233 l 52.24192,-27.47114 17.34474,53.54018 c 1.66176,5.14109 6.43935,8.62043 11.84011,8.62043 5.40075,0 10.17835,-3.47934 11.84012,-8.62043 l 17.34473,-53.54018 52.24192,27.47114 c 4.82951,2.54459 10.74957,1.66177 14.59242,-2.233 3.84284,-3.89477 4.7776,-9.76291 2.233,-14.59242 l -27.47114,-52.24192 53.54018,-17.34473 c 5.1411,-1.66178 8.62043,-6.43937 8.62043,-11.84012 0,-5.40076 -3.47933,-10.17835 -8.62043,-11.84012 l -55.30582,-17.91597 13.3461,-36.55896 c 1.66177,-4.56987 0.51931,-9.65904 -2.9081,-13.08645 -3.4274,-3.42739 -8.51657,-4.56986 -13.08644,-2.90809 l -36.55895,13.34609 -17.9679,-55.357737 c -1.66177,-5.141103 -6.43937,-8.620436 -11.84012,-8.620436 -5.40076,0 -10.17835,3.479333 -11.84011,8.620436 l -16.77351,51.722617 z" id="path610" style="stroke-width:0.519304" />
</svg>
