<svg version="1.1" id="Layer_1" x="0px" y="0px" viewBox="0 0 512 512" style="enable-background:new 0 0 512 512;" xml:space="preserve"
    xmlns="http://www.w3.org/2000/svg"
    xmlns:svg="http://www.w3.org/2000/svg">
    <defs id="defs62" />
    <path style="fill:#EE3840;" d="M454.848,198.848c0,159.225-179.751,306.689-179.751,306.689c-10.503,8.617-27.692,8.617-38.195,0  c0,0-179.751-147.464-179.751-306.689C57.153,89.027,146.18,0,256,0S454.848,89.027,454.848,198.848z" id="path25" />
    <path style="fill:#FFE1D6;" d="M256,298.89c-55.164,0-100.041-44.879-100.041-100.041S200.838,98.806,256,98.806  s100.041,44.879,100.041,100.041S311.164,298.89,256,298.89z" id="path27" />
    <g id="layer1">
        <g id="g192" style="fill:none;fill-rule:evenodd;stroke:none;stroke-width:1" transform="matrix(13.445917,0,0,13.445917,98.424024,42.437604)">
            <polygon id="Path" points="24,0 24,24 0,24 0,0 " />
            <path d="M 18,9.52 V 6 H 14.48 L 12,3.52 9.52,6 H 6 V 9.52 L 3.52,12 6,14.48 V 18 H 9.52 L 12,20.48 14.48,18 H 18 V 14.48 L 20.48,12 Z M 12,18 C 8.69,18 6,15.31 6,12 6,8.69 8.69,6 12,6 c 3.31,0 6,2.69 6,6 0,3.31 -2.69,6 -6,6 z" id="🔹-Secondary-Color" fill="#d0d0d0" />
            <path d="M 20,8.69 V 4 H 15.31 L 12,0.69 8.69,4 H 4 V 8.69 L 0.69,12 4,15.31 V 20 H 8.69 L 12,23.31 15.31,20 H 20 V 15.31 L 23.31,12 Z m -2,5.79 V 18 H 14.48 L 12,20.48 9.52,18 H 6 V 14.48 L 3.52,12 6,9.52 V 6 H 9.52 L 12,3.52 14.48,6 H 18 V 9.52 L 20.48,12 Z M 12,6 c -3.31,0 -6,2.69 -6,6 0,3.31 2.69,6 6,6 3.31,0 6,-2.69 6,-6 0,-3.31 -2.69,-6 -6,-6 z m 0,10 C 9.79,16 8,14.21 8,12 8,9.79 9.79,8 12,8 c 2.21,0 4,1.79 4,4 0,2.21 -1.79,4 -4,4 z" id="🔹-Primary-Color" fill="#1d1d1d" />
        </g>
    </g>
</svg>